{"title":"The.Venture.Bros.S06E02.1080p.WEB-DL.DD5.1.H.264-RARBG","uid":13475251,"size":853882806,"categoryP":"video","categoryS":"hd___tv_shows","magnet":"?xt=urn:btih:a028c7d0b504e7b19b7cd131af43e4129d3ec17b&amp;dn=The.Venture.Bros.S06E02.1080p.WEB-DL.DD5.1.H.264-RARBG&amp;tr=udp%3A%2F%2Ftracker.leechers-paradise.org%3A6969&amp;tr=udp%3A%2F%2Fzer0day.ch%3A1337&amp;tr=udp%3A%2F%2Fopen.demonii.com%3A1337&amp;tr=udp%3A%2F%2Ftracker.coppersurfer.tk%3A6969&amp;tr=udp%3A%2F%2Fexodus.desync.com%3A6969","seeders":4,"leechers":0,"uploader":"frostyon420","files":3,"time":1455001847,"description":"â•”â•â•â•â•¦â•—â”€â”€â”€â•”â•â•â•â•—â”€â”€â•”â•—â•”â•—â”€â”€â•”â•—\r\nâ•‘â•”â•â•—â•‘â•‘â”€â”€â”€â•‘â•”â•â•—â•‘â”€â•”â•â•šâ•£â•šâ•—â•”â•â•‘\r\nâ•‘â•šâ•â•â•‘â•šâ•â•¦â•â•£â•‘â•‘â•‘â• â•â•©â•—â•”â•©â•—â•šâ•â•”â•\r\nâ•‘â•”â•â•â•£â•”â•—â•‘â•”â•£â•‘â•‘â•‘â•‘â•â•â•£â•‘â”€â•šâ•—â•”â•\r\nâ•‘â•‘â”€â”€â•‘â•‘â•‘â•‘â•‘â•‘â•šâ•â•â• â•â•â•‘â•šâ•—â”€â•‘â•‘\r\nâ•šâ•â”€â”€â•šâ•â•šâ•©â•â•šâ•â•â•â•©â•â•â•©â•â•â”€â•šâ•\r\n   Phr0stY-Duz-It\r\n    kat.cr sucks\r\n\r\n[mediainfo]\r\nVideo\r\nID                          : 1\r\nFormat                      : AVC\r\nFormat/Info                 : Advanced Video Codec\r\nFormat profile              :   \r\nFormat settings, CABAC      : Yes\r\nFormat settings, ReFrames   : 4 frames\r\nCodec ID                    : V_MPEG4/ISO/AVC\r\nDuration                    : 22mn 38s\r\nBit rate                    : 4 544 Kbps\r\nWidth                       : 1 920 pixels\r\nHeight                      : 1 080 pixels\r\nDisplay aspect ratio        : 16:9\r\nFrame rate mode             : Constant\r\nFrame rate                  : 23.976 fps\r\nColor space                 : YUV\r\nChroma subsampling          : 4:2:0\r\nBit depth                   : 8 bits\r\nScan type                   : Progressive\r\nBits/(Pixel*Frame)          : 0.091\r\nStream size                 : 736 MiB (90%)\r\nTitle                       : The.Venture.Bros.S06E02.Maybe.No.Go.UNCENSORED.1080p.WEB-DL.DD5.1.H.264-RARBG\r\nLanguage                    : English\r\nDefault                     : Yes\r\nForced                      : No\r\nColor primaries             : BT.709\r\nTransfer characteristics    : BT.709\r\nMatrix coefficients         : BT.709\r\nColor range                 : Limited\r\n\r\nAudio\r\nID                          : 2\r\nFormat                      : AC-3\r\nFormat/Info                 : Audio Coding 3\r\nMode extension              : CM (complete main)\r\nFormat settings, Endianness : Big\r\nCodec ID                    : A_AC3\r\nDuration                    : 22mn 38s\r\nBit rate mode               : Constant\r\nBit rate                    : 384 Kbps\r\nChannel(s)                  : 6 channels\r\nChannel positions           : Front: L C R, Side: L R, LFE\r\nSampling rate               : 48.0 KHz\r\nBit depth                   : 16 bits\r\nCompression mode            : Lossy\r\nStream size                 : 62.2 MiB (8%)\r\nTitle                       : The.Venture.Bros.S06E02.Maybe.No.Go.UNCENSORED.1080p.WEB-DL.DD5.1.H.264-RARBG\r\nLanguage                    : English\r\nDefault                     : Yes\r\nForced                      : No\r\n\r\nText\r\nID                          : 3\r\nFormat                      : UTF-8\r\nCodec ID                    : S_TEXT/UTF8\r\nCodec ID/Info               : UTF-8 Plain Text\r\nTitle                       : English\r\nLanguage                    : English\r\nDefault                     : No\r\nForced                      : No\r\n[/mediainfo]","torrent":{"xt":"urn:btih:a028c7d0b504e7b19b7cd131af43e4129d3ec17b","amp;dn":"The.Venture.Bros.S06E02.1080p.WEB-DL.DD5.1.H.264-RARBG","amp;tr":["udp%3A%2F%2Ftracker.leechers-paradise.org%3A6969","udp%3A%2F%2Fzer0day.ch%3A1337","udp%3A%2F%2Fopen.demonii.com%3A1337","udp%3A%2F%2Ftracker.coppersurfer.tk%3A6969","udp%3A%2F%2Fexodus.desync.com%3A6969"],"infoHash":"a028c7d0b504e7b19b7cd131af43e4129d3ec17b","infoHashBuffer":{"type":"Buffer","data":[160,40,199,208,181,4,231,177,155,124,209,49,175,67,228,18,157,62,193,123]},"announce":[],"urlList":[]}}